<svg width="51" height="50" viewBox="0 0 51 50" fill="none" xmlns="http://www.w3.org/2000/svg">
<g filter="url(#filter0_b_11_6744)">
<rect x="0.742188" y="0.283203" width="49" height="49" rx="9.6043" fill="url(#paint0_linear_11_6744)" fill-opacity="0.13"/>
<rect x="1.06885" y="0.60987" width="48.3467" height="48.3467" rx="9.27763" stroke="#7E2697" stroke-width="0.653333"/>
</g>
<path fill-rule="evenodd" clip-rule="evenodd" d="M29.9105 16.3678L25.2001 8.12305L16.538 23.1999H33.8139L30.5079 17.4134H22.9345V16.3678H29.9105ZM7.87695 38.2749L15.956 24.2128H34.3927L37.9806 30.4928H22.9338V31.5058H38.5593L42.4266 38.2749H7.87695Z" fill="url(#paint1_linear_11_6744)"/>
<path fill-rule="evenodd" clip-rule="evenodd" d="M7.95117 38.2749L16.0037 24.1987H28.0837C28.0108 26.1791 27.769 28.2837 27.3035 30.4847H22.9779V31.4985H27.0746C26.5518 33.6779 25.8072 35.9453 24.7902 38.2749H7.95117ZM28.1067 23.1849H16.5837L24.7902 8.83936C25.7317 10.3727 26.8148 12.9693 27.4803 16.3444H22.9786V17.391H27.6687C27.9552 19.1481 28.1242 21.0911 28.1067 23.1849Z" fill="url(#paint2_linear_11_6744)"/>
<path d="M30.1738 16.394H46.8573V17.3019H30.5467L30.1738 16.394Z" fill="url(#paint3_linear_11_6744)"/>
<path d="M33.998 23.1992H40.17V24.1071H34.3945L33.998 23.1992Z" fill="url(#paint4_linear_11_6744)"/>
<path d="M38.3223 30.5371H46.993V31.445H38.9357L38.3223 30.5371Z" fill="url(#paint5_linear_11_6744)"/>
<defs>
<filter id="filter0_b_11_6744" x="-2.26315" y="-2.72213" width="55.0107" height="55.0107" filterUnits="userSpaceOnUse" color-interpolation-filters="sRGB">
<feFlood flood-opacity="0" result="BackgroundImageFix"/>
<feGaussianBlur in="BackgroundImageFix" stdDeviation="1.50267"/>
<feComposite in2="SourceAlpha" operator="in" result="effect1_backgroundBlur_11_6744"/>
<feBlend mode="normal" in="SourceGraphic" in2="effect1_backgroundBlur_11_6744" result="shape"/>
</filter>
<linearGradient id="paint0_linear_11_6744" x1="25.2422" y1="0.283203" x2="25.2422" y2="49.2832" gradientUnits="userSpaceOnUse">
<stop stop-color="#EF37C8"/>
<stop offset="1" stop-color="#FDE7F9"/>
</linearGradient>
<linearGradient id="paint1_linear_11_6744" x1="35.8091" y1="9.91383" x2="42.5298" y2="41.2552" gradientUnits="userSpaceOnUse">
<stop stop-color="#510752"/>
<stop offset="0.467294" stop-color="#8A178C"/>
<stop offset="1" stop-color="#510752"/>
</linearGradient>
<linearGradient id="paint2_linear_11_6744" x1="2.06028" y1="23.5543" x2="54.1728" y2="23.5543" gradientUnits="userSpaceOnUse">
<stop stop-color="#F09EFF"/>
<stop offset="0.109666" stop-color="#F47FDF"/>
<stop offset="0.279666" stop-color="#D953E8"/>
<stop offset="0.504666" stop-color="#9501A0"/>
<stop offset="0.95263" stop-color="#810197"/>
</linearGradient>
<linearGradient id="paint3_linear_11_6744" x1="38.5155" y1="16.394" x2="38.5155" y2="17.3019" gradientUnits="userSpaceOnUse">
<stop stop-color="#510752"/>
<stop offset="1" stop-color="#870F88"/>
</linearGradient>
<linearGradient id="paint4_linear_11_6744" x1="37.0841" y1="23.1992" x2="37.0841" y2="24.1071" gradientUnits="userSpaceOnUse">
<stop stop-color="#510752"/>
<stop offset="1" stop-color="#870F88"/>
</linearGradient>
<linearGradient id="paint5_linear_11_6744" x1="42.6576" y1="30.5371" x2="42.6576" y2="31.445" gradientUnits="userSpaceOnUse">
<stop stop-color="#510752"/>
<stop offset="1" stop-color="#870F88"/>
</linearGradient>
</defs>
</svg>
